<svg xmlns="http://www.w3.org/2000/svg" viewBox="0 0 512 512">
  <path d="M208 80a128 128 0 11-90.5 37.5A127.2 127.2 0 01208 80m0-80a208 208 0 100 416 208 208 0 000-416z" opacity=".4"/>
  <path d="M208 112a73.8 73.8 0 00-73.8 73.8c0 33 48.2 93 66.7 114.9a9.2 9.2 0 0013 1.2 8.6 8.6 0 001.2-1.2c18.5-21.8 66.7-81.9 66.7-114.9A73.8 73.8 0 00208 112zm0 96a24 24 0 1124-24 24 24 0 01-24 24zm297 234.7L405.3 343a24 24 0 00-17-7H372l-36 36v16.3a24 24 0 007 17l99.7 99.7a23.9 23.9 0 0033.9 0l28.3-28.3a24.1 24.1 0 00.1-34z"/>
</svg>